<svg xmlns="http://www.w3.org/2000/svg" width="32" height="32" viewBox="0 0 32 32">
  <path fill="#FFF" d="M16,16.5857864 L20.2426407,12.3431458 L21.6568542,13.7573593 L16,19.4142136 L15.2928932,18.7071068 L7.51471863,10.9289322 L8.92893219,9.51471863 L16,16.5857864 Z M16,30 C8.2680135,30 2,23.7319865 2,16 C2,8.2680135 8.2680135,2 16,2 C23.7319865,2 30,8.2680135 30,16 C30,23.7319865 23.7319865,30 16,30 Z M16,28 C22.627417,28 28,22.627417 28,16 C28,9.372583 22.627417,4 16,4 C9.372583,4 4,9.372583 4,16 C4,22.627417 9.372583,28 16,28 Z"/>
</svg>
