<svg xmlns="http://www.w3.org/2000/svg" width="32" height="32" viewBox="0 0 32 32">
  <path fill="#FFF" d="M16,30 C8.2680135,30 2,23.7319865 2,16 C2,8.2680135 8.2680135,2 16,2 C23.7319865,2 30,8.2680135 30,16 C30,23.7319865 23.7319865,30 16,30 Z M16,28 C22.627417,28 28,22.627417 28,16 C28,9.372583 22.627417,4 16,4 C9.372583,4 4,9.372583 4,16 C4,22.627417 9.372583,28 16,28 Z M16,12 C15.1715729,12 14.5,11.3284271 14.5,10.5 C14.5,9.67157288 15.1715729,9 16,9 C16.8284271,9 17.5,9.67157288 17.5,10.5 C17.5,11.3284271 16.8284271,12 16,12 Z M15,14 L17,14 L17,23 L15,23 L15,14 Z"/>
</svg>
