<svg xmlns="http://www.w3.org/2000/svg" width="32" height="32" viewBox="0 0 32 32">
  <path fill="#FFF" d="M13,20 C16.8659932,20 20,16.8659932 20,13 C20,9.13400675 16.8659932,6 13,6 C9.13400675,6 6,9.13400675 6,13 C6,16.8659932 9.13400675,20 13,20 Z M20.0318994,18.6176858 L27.9497475,26.5355339 L26.5355339,27.9497475 L18.6176858,20.0318994 C17.078015,21.2635271 15.1250137,22 13,22 C8.02943725,22 4,17.9705627 4,13 C4,8.02943725 8.02943725,4 13,4 C17.9705627,4 22,8.02943725 22,13 C22,15.1250137 21.2635271,17.078015 20.0318994,18.6176858 L20.0318994,18.6176858 Z"/>
</svg>
